<svg xmlns="http://www.w3.org/2000/svg" viewBox="0 0 480 300" fill="none">
  <!-- Laptop -->
  <g transform="translate(10, 20)">
    <rect x="0" y="0" width="340" height="210" rx="10" fill="#243656" stroke="#3a5580" stroke-width="1.5"/>
    <rect x="12" y="12" width="316" height="178" rx="4" fill="#111827"/>
    <!-- Sidebar -->
    <rect x="20" y="20" width="52" height="162" rx="2" fill="#1a2744"/>
    <rect x="26" y="28" width="40" height="5" rx="1" fill="#52c41a" opacity="0.7"/>
    <rect x="26" y="40" width="40" height="4" rx="1" fill="#2a4068"/>
    <rect x="26" y="50" width="40" height="4" rx="1" fill="#2a4068"/>
    <rect x="26" y="60" width="40" height="4" rx="1" fill="#2a4068"/>
    <!-- KPI row -->
    <rect x="82" y="20" width="68" height="32" rx="3" fill="#1e3050"/>
    <rect x="158" y="20" width="68" height="32" rx="3" fill="#1e3050"/>
    <rect x="234" y="20" width="86" height="32" rx="3" fill="#1e3050"/>
    <text x="116" y="40" fill="#4ecdc4" font-size="11" font-family="Arial" text-anchor="middle" font-weight="bold">1280</text>
    <text x="192" y="40" fill="#ffd666" font-size="11" font-family="Arial" text-anchor="middle" font-weight="bold">96.5%</text>
    <text x="277" y="40" fill="#ff7875" font-size="11" font-family="Arial" text-anchor="middle" font-weight="bold">12</text>
    <!-- Main chart -->
    <rect x="82" y="60" width="238" height="88" rx="3" fill="#141e36"/>
    <polyline points="92,130 112,110 132,115 152,95 172,100 192,80 212,85 232,70 252,75 272,60 292,65 310,55" stroke="#52c41a" stroke-width="2.5" fill="none"/>
    <polyline points="92,130 112,120 132,118 152,125 172,115 192,120 212,110 232,115 252,105 272,110 292,100 310,105" stroke="#4ecdc4" stroke-width="2" fill="none" opacity="0.8"/>
    <!-- Bottom widgets -->
    <rect x="82" y="156" width="72" height="34" rx="3" fill="#1e3050"/>
    <rect x="162" y="156" width="72" height="34" rx="3" fill="#1e3050"/>
    <rect x="242" y="156" width="78" height="34" rx="3" fill="#1e3050"/>
    <circle cx="118" cy="173" r="11" stroke="#52c41a" stroke-width="3" fill="none" stroke-dasharray="45 25"/>
    <circle cx="198" cy="173" r="11" stroke="#ffd666" stroke-width="3" fill="none" stroke-dasharray="30 40"/>
    <!-- Stand -->
    <path d="M130 210 L210 210 L228 222 L112 222 Z" fill="#3a5580"/>
    <rect x="100" y="222" width="200" height="7" rx="2" fill="#243656" stroke="#3a5580"/>
  </g>

  <!-- Phone -->
  <g transform="translate(320, 50)">
    <rect x="0" y="0" width="130" height="230" rx="16" fill="#243656" stroke="#3a5580" stroke-width="1.5"/>
    <rect x="10" y="16" width="110" height="198" rx="6" fill="#111827"/>
    <rect x="18" y="24" width="94" height="26" rx="3" fill="#1e3050"/>
    <text x="65" y="42" fill="#4ecdc4" font-size="10" font-family="Arial" text-anchor="middle">????</text>
    <rect x="18" y="58" width="42" height="38" rx="3" fill="#1e3050"/>
    <rect x="68" y="58" width="44" height="38" rx="3" fill="#1e3050"/>
    <text x="39" y="82" fill="#52c41a" font-size="10" font-family="Arial" text-anchor="middle" font-weight="bold">98%</text>
    <text x="90" y="82" fill="#ffd666" font-size="10" font-family="Arial" text-anchor="middle" font-weight="bold">856</text>
    <circle cx="65" cy="140" r="30" fill="#141e36"/>
    <path d="M65 110 A30 30 0 0 1 88 158 L65 140 Z" fill="#52c41a"/>
    <path d="M88 158 A30 30 0 0 1 42 158 L65 140 Z" fill="#ffd666"/>
    <path d="M42 158 A30 30 0 0 1 65 110 L65 140 Z" fill="#ff7875"/>
    <rect x="18" y="182" width="94" height="22" rx="3" fill="#52c41a" opacity="0.85"/>
    <text x="65" y="197" fill="#fff" font-size="9" font-family="Arial" text-anchor="middle">????</text>
  </g>
</svg>
